<svg xmlns="http://www.w3.org/2000/svg" width="375" height="375" viewBox="0 0 375 375"><rect width="100%" height="100%" fill="#DDDDDD"/><path fill="#999999" d="M93.34 173.995h4.5v27.47h-2.62q-.61 0-1.02-.2t-.79-.67l-14.34-18.32q.11 1.25.11 2.32v16.87h-4.5v-27.47h2.68q.32 0 .56.02.24.03.42.12.18.08.35.25.17.16.38.42l14.4 18.39q-.06-.66-.09-1.31-.04-.64-.04-1.19zm18.5 7.67q2.17 0 3.95.71 1.77.7 3.04 1.99 1.26 1.29 1.94 3.15.69 1.87.69 4.16 0 2.32-.69 4.19-.68 1.86-1.94 3.17-1.27 1.31-3.04 2.01-1.78.7-3.95.7-2.18 0-3.97-.7-1.78-.7-3.05-2.01-1.26-1.31-1.95-3.17-.7-1.87-.7-4.19 0-2.29.7-4.16.69-1.86 1.95-3.15 1.27-1.29 3.05-1.99 1.79-.71 3.97-.71m0 16.48q2.44 0 3.6-1.64 1.17-1.63 1.17-4.79 0-3.15-1.17-4.8-1.16-1.66-3.6-1.66-2.47 0-3.65 1.67-1.19 1.66-1.19 4.79 0 3.14 1.19 4.78 1.18 1.65 3.65 1.65m19.71 3.62q-2.55 0-3.91-1.43t-1.36-3.96v-10.89h-1.99q-.38 0-.65-.25-.26-.24-.26-.74v-1.86l3.13-.51.99-5.32q.09-.38.36-.59t.68-.21h2.44v6.14h5.2v3.34h-5.2v10.56q0 .92.44 1.43.45.51 1.23.51.44 0 .73-.1.29-.11.51-.22t.39-.22q.17-.1.34-.1.21 0 .35.1.13.11.28.31l1.41 2.28q-1.03.86-2.36 1.3-1.33.43-2.75.43m23.39-10.67h8.74l-3.35-9.14q-.25-.61-.51-1.45-.27-.83-.53-1.8-.25.97-.52 1.81-.26.85-.51 1.48zm6.97-17.1 10.79 27.47h-3.95q-.67 0-1.08-.33-.42-.34-.63-.83l-2.05-5.6h-11.38l-2.06 5.6q-.15.44-.59.8-.43.36-1.08.36h-3.99l10.81-27.47zm26.77 7.98h3.7l-7.73 19.49h-4.25l-7.74-19.49h3.88q.53 0 .88.24.35.25.47.63l3.76 10.41q.3.91.53 1.79.23.87.4 1.75.19-.88.42-1.75.23-.88.55-1.79l3.84-10.41q.13-.38.47-.63.34-.24.82-.24m16.49 14.45v-3.28q-2.03.09-3.42.35t-2.22.66q-.84.39-1.2.93-.36.53-.36 1.16 0 1.23.73 1.76t1.91.53q1.45 0 2.5-.52t2.06-1.59m-9.92-10.24-.83-1.5q3.36-3.08 8.09-3.08 1.71 0 3.06.57 1.35.56 2.28 1.55.93 1 1.42 2.39.48 1.39.48 3.04v12.31h-2.13q-.66 0-1.02-.2t-.57-.81l-.42-1.4q-.74.66-1.45 1.17-.7.5-1.46.84t-1.62.52q-.87.18-1.91.18-1.24 0-2.28-.33-1.05-.33-1.81-1-.76-.66-1.18-1.65-.41-.99-.41-2.3 0-.74.24-1.47.25-.73.81-1.4.56-.66 1.45-1.25.9-.59 2.2-1.03 1.3-.43 3.03-.71t3.95-.33v-1.14q0-1.96-.83-2.9-.84-.94-2.42-.94-1.14 0-1.89.27-.75.26-1.32.59-.57.34-1.03.6-.47.27-1.04.27-.49 0-.84-.26-.34-.25-.55-.6m19.06-4.21h4.71v19.49h-4.71zm5.36-5.69q0 .61-.25 1.14-.25.54-.65.94-.41.4-.96.63-.55.24-1.18.24-.61 0-1.15-.24-.54-.23-.94-.63t-.64-.94q-.24-.53-.24-1.14 0-.62.24-1.17t.64-.95.94-.64 1.15-.24q.63 0 1.18.24t.96.64q.4.4.65.95t.25 1.17m4.2-3.05h4.69v28.23h-4.69zm19.68 23.19v-3.28q-2.03.09-3.42.35t-2.22.66q-.84.39-1.2.93-.36.53-.36 1.16 0 1.23.73 1.76t1.91.53q1.45 0 2.5-.52t2.06-1.59m-9.92-10.24-.83-1.5q3.36-3.08 8.09-3.08 1.71 0 3.06.57 1.35.56 2.28 1.55.93 1 1.42 2.39.48 1.39.48 3.04v12.31H246q-.66 0-1.02-.2t-.57-.81l-.42-1.4q-.74.66-1.45 1.17-.7.5-1.46.84t-1.62.52q-.87.18-1.91.18-1.24 0-2.28-.33-1.05-.33-1.81-1-.76-.66-1.18-1.65-.41-.99-.41-2.3 0-.74.24-1.47.25-.73.81-1.4.56-.66 1.45-1.25.9-.59 2.2-1.03 1.3-.43 3.03-.71t3.95-.33v-1.14q0-1.96-.83-2.9-.84-.94-2.42-.94-1.14 0-1.89.27-.75.26-1.32.59-.57.34-1.03.6-.47.27-1.04.27-.49 0-.84-.26-.34-.25-.55-.6m23.6 1.49v8.74q.8.97 1.74 1.36.94.4 1.99.4 1.08 0 1.94-.39.87-.39 1.48-1.21.6-.83.93-2.11.32-1.28.32-3.07 0-3.21-1.06-4.65-1.07-1.43-3.06-1.43-1.35 0-2.36.62t-1.92 1.74m0-14.44v11.13q1.18-1.24 2.61-1.97 1.44-.73 3.28-.73 1.69 0 3.05.67 1.36.66 2.32 1.91.96 1.24 1.47 3.01.51 1.76.51 3.97 0 2.37-.59 4.31-.58 1.94-1.68 3.32-1.09 1.38-2.63 2.14-1.54.75-3.42.75-.91 0-1.65-.18t-1.37-.5-1.15-.79q-.52-.46-1-1.03l-.2 1.31q-.12.49-.39.7-.28.21-.75.21h-3.1v-28.23zm16.93 0h4.69v28.23h-4.69zm13.09 16.24h8.85q0-.91-.25-1.72-.26-.81-.77-1.41-.51-.61-1.3-.96t-1.84-.35q-2.03 0-3.2 1.15-1.17 1.16-1.49 3.29m11.97 2.83h-12.06q.11 1.5.53 2.6.42 1.09 1.1 1.8t1.62 1.06q.94.36 2.08.36t1.97-.27 1.45-.59q.61-.32 1.08-.59.46-.26.9-.26.59 0 .87.43l1.35 1.71q-.77.92-1.74 1.53-.97.62-2.03.99-1.05.37-2.14.52-1.1.15-2.12.15-2.04 0-3.78-.67-1.75-.67-3.04-1.99-1.3-1.33-2.04-3.27-.74-1.95-.74-4.51 0-2 .65-3.76.64-1.75 1.85-3.06 1.21-1.3 2.95-2.06 1.73-.76 3.92-.76 1.84 0 3.4.59t2.68 1.72 1.76 2.77q.63 1.65.63 3.76 0 1.06-.22 1.43-.23.37-.88.37"/></svg>